<?xml version="1.0" encoding="utf-8"?>
<svg version="1.1" xmlns:xlink="http://www.w3.org/1999/xlink" width="500px" height="620px" xmlns="http://www.w3.org/2000/svg">
  <defs>
    <filter x="-10px" y="-10px" width="500px" height="620px" filterUnits="userSpaceOnUse" id="filter5524">
      <feOffset dx="0" dy="0" in="SourceAlpha" result="shadowOffsetInner" />
      <feGaussianBlur stdDeviation="5" in="shadowOffsetInner" result="shadowGaussian" />
      <feComposite in2="shadowGaussian" operator="atop" in="SourceAlpha" result="shadowComposite" />
      <feColorMatrix type="matrix" values="0 0 0 0 0  0 0 0 0 0  0 0 0 0 0  0 0 0 0.149019607843137 0  " in="shadowComposite" />
    </filter>
    <g id="widget5525">
      <path d="M 1 15  A 14 14 0 0 1 15 1 L 465 1  A 14 14 0 0 1 479 15 L 479 585  A 14 14 0 0 1 465 599 L 15 599  A 14 14 0 0 1 1 585 L 1 15  Z " fill-rule="nonzero" fill="#000000" stroke="none" fill-opacity="0.2" />
      <path d="M 0.5 15  A 14.5 14.5 0 0 1 15 0.5 L 465 0.5  A 14.5 14.5 0 0 1 479.5 15 L 479.5 585  A 14.5 14.5 0 0 1 465 599.5 L 15 599.5  A 14.5 14.5 0 0 1 0.5 585 L 0.5 15  Z " stroke-width="1" stroke="#000000" fill="none" stroke-opacity="0.298039215686275" />
    </g>
  </defs>
  <g transform="matrix(1 0 0 1 10 10 )">
    <use xlink:href="#widget5525" filter="url(#filter5524)" />
    <use xlink:href="#widget5525" />
  </g>
</svg>